<svg xmlns="http://www.w3.org/2000/svg" viewBox="0 0 188.16 72.63"><title>fdmlogo_1</title><g id="Layer_2" data-name="Layer 2"><g id="Layer_1-2" data-name="Layer 1"><path d="M43.26,11.1V3.76h5v.87h-4V6.9h3.45v.87H44.23V11.1Z"/><path d="M46.09,23V15.64h2.53a6.16,6.16,0,0,1,1.31.1,2.49,2.49,0,0,1,1.08.53,3,3,0,0,1,.87,1.25,4.93,4.93,0,0,1,.29,1.75,5.12,5.12,0,0,1-.2,1.48,3.6,3.6,0,0,1-.5,1.07,2.65,2.65,0,0,1-.67.67,2.72,2.72,0,0,1-.88.37,5,5,0,0,1-1.18.13Zm1-.87h1.57A3.8,3.8,0,0,0,49.77,22a1.63,1.63,0,0,0,.66-.38,2.31,2.31,0,0,0,.54-.93,4.55,4.55,0,0,0,.19-1.42,3.42,3.42,0,0,0-.38-1.77,1.9,1.9,0,0,0-.92-.83,3.79,3.79,0,0,0-1.26-.15H47.06Z"/><path d="M51.83,34.86V27.52h1.46L55,32.72q.24.73.35,1.09.13-.4.39-1.18l1.76-5.11h1.31v7.34H57.9V28.71l-2.13,6.15h-.88l-2.12-6.25v6.25Z"/><path d="M62.81,32.2A2.74,2.74,0,0,1,63.63,30a2.48,2.48,0,0,1,1.67-.59,2.39,2.39,0,0,1,1.79.72,2.74,2.74,0,0,1,.7,2,3.52,3.52,0,0,1-.31,1.62,2.18,2.18,0,0,1-.9.91,2.61,2.61,0,0,1-1.29.33,2.39,2.39,0,0,1-1.81-.72A2.86,2.86,0,0,1,62.81,32.2Zm.93,0a2.27,2.27,0,0,0,.45,1.53,1.48,1.48,0,0,0,2.24,0,2.32,2.32,0,0,0,.45-1.56,2.2,2.2,0,0,0-.45-1.5,1.49,1.49,0,0,0-2.24,0A2.26,2.26,0,0,0,63.74,32.2Z"/><path d="M69.08,34.86V30.24h-.8v-.7h.8V29a2.48,2.48,0,0,1,.1-.8,1.15,1.15,0,0,1,.46-.57,1.65,1.65,0,0,1,.92-.22,4.42,4.42,0,0,1,.84.09l-.14.79a3,3,0,0,0-.53-.05.79.79,0,0,0-.58.18A1,1,0,0,0,70,29v.49h1v.7H70v4.62Z"/><path d="M80,32.29l1,.25a3.27,3.27,0,0,1-1.1,1.83,3,3,0,0,1-1.94.63A3.49,3.49,0,0,1,76,34.5a3,3,0,0,1-1.13-1.4,5,5,0,0,1-.39-2,4.33,4.33,0,0,1,.44-2,3,3,0,0,1,1.25-1.3,3.65,3.65,0,0,1,1.78-.44,3,3,0,0,1,1.85.56,2.92,2.92,0,0,1,1,1.58l-1,.23a2.27,2.27,0,0,0-.74-1.17,2,2,0,0,0-1.22-.37,2.37,2.37,0,0,0-1.42.41,2.14,2.14,0,0,0-.8,1.09,4.4,4.4,0,0,0-.23,1.41,4.48,4.48,0,0,0,.27,1.64,2,2,0,0,0,.85,1,2.38,2.38,0,0,0,1.25.35,2.09,2.09,0,0,0,1.38-.47A2.41,2.41,0,0,0,80,32.29Z"/><path d="M82,34.86V27.52h.9v7.34Z"/><path d="M87.91,33.15l.93.12A2.27,2.27,0,0,1,88,34.53a2.77,2.77,0,0,1-3.37-.27,2.81,2.81,0,0,1-.68-2,2.94,2.94,0,0,1,.69-2.08,2.34,2.34,0,0,1,1.79-.74,2.28,2.28,0,0,1,1.74.73,2.89,2.89,0,0,1,.68,2c0,.05,0,.13,0,.24h-4a2,2,0,0,0,.5,1.34,1.48,1.48,0,0,0,1.11.47,1.38,1.38,0,0,0,.85-.26A1.72,1.72,0,0,0,87.91,33.15Zm-3-1.46h3a1.8,1.8,0,0,0-.34-1,1.38,1.38,0,0,0-1.12-.52,1.43,1.43,0,0,0-1,.42A1.65,1.65,0,0,0,84.95,31.69Z"/><path d="M93.45,34.2a3.36,3.36,0,0,1-1,.6,2.79,2.79,0,0,1-1,.18,1.93,1.93,0,0,1-1.35-.43,1.41,1.41,0,0,1-.47-1.09,1.48,1.48,0,0,1,.64-1.23,2.19,2.19,0,0,1,.65-.3,6.44,6.44,0,0,1,.8-.14,8.25,8.25,0,0,0,1.61-.31c0-.12,0-.2,0-.24a1,1,0,0,0-.26-.78,1.51,1.51,0,0,0-1-.31,1.59,1.59,0,0,0-.94.22,1.36,1.36,0,0,0-.45.79l-.88-.12a2.19,2.19,0,0,1,.4-.91,1.74,1.74,0,0,1,.8-.54,3.56,3.56,0,0,1,1.21-.19,3.19,3.19,0,0,1,1.11.16A1.46,1.46,0,0,1,94,30a1.43,1.43,0,0,1,.28.61,5,5,0,0,1,0,.83v1.2a12.91,12.91,0,0,0,.06,1.59,2,2,0,0,0,.23.64h-.94A1.91,1.91,0,0,1,93.45,34.2Zm-.08-2a6.59,6.59,0,0,1-1.47.34,3.45,3.45,0,0,0-.79.18.78.78,0,0,0-.36.29.8.8,0,0,0,.15,1,1.18,1.18,0,0,0,.8.24,1.86,1.86,0,0,0,.93-.23,1.4,1.4,0,0,0,.6-.62,2.18,2.18,0,0,0,.15-.9Z"/><path d="M95.69,34.86V29.54h.81v.81a2.19,2.19,0,0,1,.57-.75,1,1,0,0,1,.58-.18,1.76,1.76,0,0,1,.93.29l-.31.84a1.29,1.29,0,0,0-.66-.2.86.86,0,0,0-.53.18,1,1,0,0,0-.33.49,3.5,3.5,0,0,0-.15,1.05v2.79Z"/><path d="M100.11,34.86l-1.63-5.32h.93l.85,3.07.32,1.14.28-1.1.85-3.12h.93l.8,3.09.27,1,.31-1,.91-3.08h.88l-1.66,5.32h-.94l-.85-3.19-.21-.91L101,34.86Z"/><path d="M110,34.2a3.36,3.36,0,0,1-1,.6,2.79,2.79,0,0,1-1,.18,1.93,1.93,0,0,1-1.35-.43,1.41,1.41,0,0,1-.47-1.09,1.45,1.45,0,0,1,.18-.71,1.47,1.47,0,0,1,.47-.52,2.18,2.18,0,0,1,.65-.3,6.42,6.42,0,0,1,.8-.14,8.28,8.28,0,0,0,1.61-.31c0-.12,0-.2,0-.24a1,1,0,0,0-.26-.78,1.51,1.51,0,0,0-1-.31,1.59,1.59,0,0,0-.94.22,1.36,1.36,0,0,0-.45.79l-.88-.12a2.19,2.19,0,0,1,.4-.91,1.74,1.74,0,0,1,.8-.54,3.55,3.55,0,0,1,1.21-.19,3.2,3.2,0,0,1,1.11.16,1.46,1.46,0,0,1,.63.4,1.42,1.42,0,0,1,.28.61,5.05,5.05,0,0,1,0,.83v1.2a12.83,12.83,0,0,0,.06,1.59,2,2,0,0,0,.23.64h-.94A1.92,1.92,0,0,1,110,34.2Zm-.08-2a6.6,6.6,0,0,1-1.47.34,3.44,3.44,0,0,0-.79.18.78.78,0,0,0-.36.29.8.8,0,0,0,.15,1,1.18,1.18,0,0,0,.8.24,1.86,1.86,0,0,0,.93-.23,1.4,1.4,0,0,0,.6-.62,2.18,2.18,0,0,0,.15-.9Z"/><path d="M114.18,34.05l.13.8a3.33,3.33,0,0,1-.68.08,1.54,1.54,0,0,1-.76-.16.87.87,0,0,1-.38-.41,3.21,3.21,0,0,1-.11-1.06V30.24h-.66v-.7h.66V28.22l.9-.54v1.86h.91v.7h-.91v3.11a1.55,1.55,0,0,0,0,.5.37.37,0,0,0,.16.18.6.6,0,0,0,.31.06Z"/><path d="M118.71,33.15l.93.12a2.27,2.27,0,0,1-.82,1.27,2.77,2.77,0,0,1-3.37-.27,2.81,2.81,0,0,1-.68-2,2.94,2.94,0,0,1,.69-2.08,2.34,2.34,0,0,1,1.79-.74,2.27,2.27,0,0,1,1.74.73,2.89,2.89,0,0,1,.68,2c0,.05,0,.13,0,.24h-4a2,2,0,0,0,.5,1.34,1.48,1.48,0,0,0,1.11.47,1.38,1.38,0,0,0,.85-.26A1.73,1.73,0,0,0,118.71,33.15Zm-3-1.46h3a1.8,1.8,0,0,0-.34-1,1.38,1.38,0,0,0-1.12-.52,1.43,1.43,0,0,0-1,.42A1.65,1.65,0,0,0,115.75,31.69Z"/><path d="M120.78,34.86V29.54h.81v.81a2.19,2.19,0,0,1,.57-.75,1,1,0,0,1,.58-.18,1.76,1.76,0,0,1,.93.29l-.31.84a1.29,1.29,0,0,0-.66-.2.86.86,0,0,0-.53.18,1,1,0,0,0-.33.49,3.5,3.5,0,0,0-.15,1.05v2.79Z"/><path d="M124.45,34.86v-1h1v1a1.82,1.82,0,0,1-.2.91,1.31,1.31,0,0,1-.64.54l-.25-.39a.85.85,0,0,0,.42-.37,1.57,1.57,0,0,0,.15-.7Z"/><path d="M130.24,34.86V27.52h1v7.34Z"/><path d="M132.82,34.86V29.54h.81v.76a1.91,1.91,0,0,1,1.69-.88,2.22,2.22,0,0,1,.88.17,1.39,1.39,0,0,1,.6.45,1.73,1.73,0,0,1,.28.67,5.06,5.06,0,0,1,.05.88v3.27h-.9V31.62a2.46,2.46,0,0,0-.1-.82.87.87,0,0,0-.37-.44,1.18,1.18,0,0,0-.63-.16,1.46,1.46,0,0,0-1,.37,1.81,1.81,0,0,0-.42,1.39v2.91Z"/><path d="M142,32.91l.89.12a2.31,2.31,0,0,1-.74,1.44,2.17,2.17,0,0,1-1.47.52,2.28,2.28,0,0,1-1.76-.71,2.9,2.9,0,0,1-.66-2,3.7,3.7,0,0,1,.29-1.51,2,2,0,0,1,.87-1,2.58,2.58,0,0,1,1.27-.32,2.21,2.21,0,0,1,1.42.44,2,2,0,0,1,.71,1.25l-.88.14a1.46,1.46,0,0,0-.44-.81,1.15,1.15,0,0,0-.77-.27,1.4,1.4,0,0,0-1.11.49,2.32,2.32,0,0,0-.43,1.55,2.4,2.4,0,0,0,.41,1.56,1.34,1.34,0,0,0,1.07.49,1.26,1.26,0,0,0,.89-.33A1.62,1.62,0,0,0,142,32.91Z"/><path d="M143.93,34.86v-1h1v1Z"/><line x1="187.62" y1="37.56" x2="40.08" y2="37.56" style="fill:none;stroke:#000;stroke-linecap:round;stroke-linejoin:round;stroke-width:1.0800000429153442px"/><polyline points="187.2 72.54 187.38 72.48 187.56 72.3 187.62 72.12 187.68 72.18" style="fill:none;stroke:#000;stroke-linecap:round;stroke-linejoin:round;stroke-width:0.05999999865889549px"/><line x1="22.08" y1="54.66" x2="22.08" y2="46.56" style="fill:none;stroke:#000;stroke-linecap:round;stroke-linejoin:round;stroke-width:1.0800000429153442px"/><polyline points="0.42 72.12 0.48 72.3 0.66 72.48 0.84 72.54 0.9 72.6" style="fill:none;stroke:#000;stroke-linecap:round;stroke-linejoin:round;stroke-width:0.05999999865889549px"/><line x1="22.08" y1="10.5" x2="22.08" y2="0.54" style="fill:none;stroke:#000;stroke-linecap:round;stroke-linejoin:round;stroke-width:1.0800000429153442px"/><polyline points="22.08 10.5 17.04 15.24 10.86 18.36 4.02 19.5 10.86 20.7 17.04 23.76 22.08 28.56 27.12 23.76 33.3 20.7 40.08 19.5 33.3 18.36 27.12 15.24" style="fill:#690000;fill-rule:evenodd"/><polyline points="22.08 28.56 17.04 33.3 10.86 36.36 4.02 37.56 10.86 38.76 17.04 41.82 22.08 46.56 27.12 41.82 33.3 38.76 40.08 37.56 33.3 36.36 27.12 33.3" style="fill:#690000;fill-rule:evenodd"/><path d="M22.08,10.5,20.7,12.06A23.57,23.57,0,0,1,6.12,19.38L4,19.5" style="fill:none;stroke:#000;stroke-linecap:round;stroke-linejoin:round;stroke-width:1.0800000429153442px"/><path d="M22.08,28.56,20.7,26.94A23.94,23.94,0,0,0,6.12,19.68L4,19.5" style="fill:none;stroke:#000;stroke-linecap:round;stroke-linejoin:round;stroke-width:1.0800000429153442px"/><path d="M22.08,28.56,20.7,30.12A23.94,23.94,0,0,1,6.12,37.38L4,37.56" style="fill:none;stroke:#000;stroke-linecap:round;stroke-linejoin:round;stroke-width:1.0800000429153442px"/><path d="M22.08,46.56,20.7,45A24,24,0,0,0,6.12,37.68L4,37.56" style="fill:none;stroke:#000;stroke-linecap:round;stroke-linejoin:round;stroke-width:1.0800000429153442px"/><path d="M22.08,28.56l1.32-1.62A23.78,23.78,0,0,1,38,19.68l2-.18" style="fill:none;stroke:#000;stroke-linecap:round;stroke-linejoin:round;stroke-width:1.0800000429153442px"/><path d="M22.08,10.5l1.32,1.56A23.54,23.54,0,0,0,38,19.38l2,.12" style="fill:none;stroke:#000;stroke-linecap:round;stroke-linejoin:round;stroke-width:1.0800000429153442px"/><path d="M22.08,46.56,23.4,45A23.94,23.94,0,0,1,38,37.68l2-.12" style="fill:none;stroke:#000;stroke-linecap:round;stroke-linejoin:round;stroke-width:1.0800000429153442px"/><path d="M22.08,28.56l1.32,1.56A23.78,23.78,0,0,0,38,37.38l2,.18" style="fill:none;stroke:#000;stroke-linecap:round;stroke-linejoin:round;stroke-width:1.0800000429153442px"/><line x1="4.02" y1="37.56" x2="0.54" y2="37.56" style="fill:none;stroke:#000;stroke-linecap:round;stroke-linejoin:round;stroke-width:1.0800000429153442px"/></g></g></svg>