<svg xmlns="http://www.w3.org/2000/svg" viewBox="0 0 240 141"><title>fdmnewlogo2</title><g id="Layer_2" data-name="Layer 2"><g id="Layer_1-2" data-name="Layer 1"><rect x="6" y="6" width="228" height="129" style="fill:#fff"/><path d="M228,12V129H12V12H228M240,0H0V141H240V0Z" style="fill:#d41317"/><path d="M46.55,88.81V37.69H81.62V49.93h-21v8.5H77.73V69.81H60.59v19Z"/><path d="M87.09,88.81V37.69h19.66a28.79,28.79,0,0,1,11.16,2,22.46,22.46,0,0,1,13,13.57,29.28,29.28,0,0,1,1.66,9.9,28.85,28.85,0,0,1-1.84,10.55,22.83,22.83,0,0,1-5.22,8.06A23.42,23.42,0,0,1,117.33,87a29.16,29.16,0,0,1-10.58,1.84Zm31.18-25.63a17.47,17.47,0,0,0-.79-5.4,12.07,12.07,0,0,0-2.27-4.18,10.25,10.25,0,0,0-3.63-2.7,11.62,11.62,0,0,0-4.82-1h-5.62V76.57h5.62a11.45,11.45,0,0,0,4.9-1,10.21,10.21,0,0,0,3.64-2.81,12.35,12.35,0,0,0,2.23-4.25A18,18,0,0,0,118.27,63.18Z"/><path d="M177.3,88.81V61.89l-8.57,18.94h-7.49l-8.57-18.94V88.81h-14V37.69H154l11,24,11.09-24h15.26V88.81Z"/><path d="M54,109.19a4.66,4.66,0,0,1-6.4,0,4.42,4.42,0,0,1,0-6.22,4.66,4.66,0,0,1,6.4,0,4.43,4.43,0,0,1,0,6.22Zm-5.13-1.1a2.79,2.79,0,0,0,3.86,0,3,3,0,0,0,0-4,2.78,2.78,0,0,0-3.86,0,3,3,0,0,0,0,4Z"/><path d="M59.35,101.12v.7h2.24v1.44H59.35v7.07H57.56v-7.07H56.49v-1.44h1.07v-.66A2.85,2.85,0,0,1,58.37,99a2.69,2.69,0,0,1,2-.79,3,3,0,0,1,2.09.85l-.74,1.26a1.53,1.53,0,0,0-1.1-.56,1.14,1.14,0,0,0-.9.36A1.4,1.4,0,0,0,59.35,101.12Z"/><path d="M73.06,108.62a4,4,0,0,0,1.68-.33,5.79,5.79,0,0,0,1.47-1l1.21,1.25a5.6,5.6,0,0,1-4.31,2,5.78,5.78,0,0,1-4.21-1.63,5.93,5.93,0,0,1,0-8.29,5.91,5.91,0,0,1,4.3-1.66,5.63,5.63,0,0,1,4.34,1.92l-1.2,1.31A5.27,5.27,0,0,0,74.88,101a4.25,4.25,0,0,0-1.67-.3,4,4,0,0,0-2.85,1.1,3.69,3.69,0,0,0-1.15,2.8,3.87,3.87,0,0,0,1.14,2.85A3.71,3.71,0,0,0,73.06,108.62Z"/><path d="M81.27,110.33H79.48V98.46h1.79Z"/><path d="M91.78,106.86H85.11a1.94,1.94,0,0,0,.85,1.5,3.3,3.3,0,0,0,4.22-.44l1,1.12a4.76,4.76,0,0,1-3.58,1.42,4.26,4.26,0,0,1-3-1.19,4.21,4.21,0,0,1-1.26-3.2,4.14,4.14,0,0,1,1.28-3.19,4.3,4.3,0,0,1,3-1.18,4.37,4.37,0,0,1,3,1,3.61,3.61,0,0,1,1.22,2.89Zm-6.67-1.41H90a2,2,0,0,0-.67-1.65,2.46,2.46,0,0,0-1.66-.58,2.83,2.83,0,0,0-1.77.6A1.94,1.94,0,0,0,85.11,105.45Z"/><path d="M100.65,110.33H99V109.2a3.5,3.5,0,0,1-2.83,1.26,3.24,3.24,0,0,1-2.2-.75,2.52,2.52,0,0,1-.87-2,2.11,2.11,0,0,1,.93-1.88,4.45,4.45,0,0,1,2.51-.62h2.32v-.32q0-1.69-1.89-1.7a4.43,4.43,0,0,0-2.46.86l-.8-1.12a5.51,5.51,0,0,1,3.52-1.23,3.82,3.82,0,0,1,2.46.76,2.88,2.88,0,0,1,1,2.39Zm-1.79-3.17v-.72h-2q-1.94,0-1.94,1.22a1.08,1.08,0,0,0,.48,1,2.34,2.34,0,0,0,1.34.33,2.42,2.42,0,0,0,1.5-.48A1.53,1.53,0,0,0,98.85,107.17Z"/><path d="M107.61,103.5a2.38,2.38,0,0,0-2,.86,3.69,3.69,0,0,0-.67,2.32v3.65h-1.79v-8.51h1.79v1.71a3.7,3.7,0,0,1,1.18-1.31,2.84,2.84,0,0,1,1.58-.53l0,1.81Z"/><path d="M113.48,110.33h-2l-2.94-8.51h1.86l2.11,6.43,2.11-6.43h1.86l2.11,6.43,2.11-6.43h1.86l-2.95,8.51h-2l-2-5.82Z"/><path d="M130.9,110.33h-1.63V109.2a3.5,3.5,0,0,1-2.83,1.26,3.25,3.25,0,0,1-2.2-.75,2.52,2.52,0,0,1-.87-2,2.11,2.11,0,0,1,.93-1.88,4.45,4.45,0,0,1,2.51-.62h2.32v-.32q0-1.69-1.89-1.7a4.43,4.43,0,0,0-2.46.86l-.8-1.12a5.51,5.51,0,0,1,3.52-1.23,3.82,3.82,0,0,1,2.46.76,2.88,2.88,0,0,1,1,2.39Zm-1.79-3.17v-.72h-2q-1.94,0-1.94,1.22a1.08,1.08,0,0,0,.48,1,2.35,2.35,0,0,0,1.34.33,2.42,2.42,0,0,0,1.5-.48A1.53,1.53,0,0,0,129.11,107.17Z"/><path d="M135.51,103.26v4.32a1.4,1.4,0,0,0,.32,1,1.14,1.14,0,0,0,.9.36,1.53,1.53,0,0,0,1.1-.56l.74,1.26a3,3,0,0,1-2.09.85,2.69,2.69,0,0,1-2-.79,2.85,2.85,0,0,1-.81-2.14v-4.27h-1.07v-1.44h1.07V99.15h1.79v2.67h2.24v1.44Z"/><path d="M147.91,106.86h-6.67a1.94,1.94,0,0,0,.85,1.5,3.3,3.3,0,0,0,4.22-.44l1,1.12a4.76,4.76,0,0,1-3.58,1.42,4.27,4.27,0,0,1-3-1.19,4.2,4.2,0,0,1-1.26-3.2,4.14,4.14,0,0,1,1.28-3.19,4.29,4.29,0,0,1,3-1.18,4.37,4.37,0,0,1,3,1,3.61,3.61,0,0,1,1.22,2.89Zm-6.67-1.41h4.88a2,2,0,0,0-.67-1.65,2.46,2.46,0,0,0-1.66-.58,2.83,2.83,0,0,0-1.77.6A1.93,1.93,0,0,0,141.24,105.45Z"/><path d="M154.34,103.5a2.38,2.38,0,0,0-2,.86,3.68,3.68,0,0,0-.67,2.32v3.65h-1.79v-8.51h1.79v1.71a3.71,3.71,0,0,1,1.18-1.31,2.83,2.83,0,0,1,1.58-.53l0,1.81Z"/><path d="M156,109.29a1.19,1.19,0,0,1,1.18-1.2,1.18,1.18,0,0,1,.84.34,1.1,1.1,0,0,1,.36.82,2.33,2.33,0,0,1-.43,1.17L157,112h-.93l.59-1.66A1.07,1.07,0,0,1,156,109.29Z"/><path d="M165.36,99.15h1.89v11.18h-1.89Z"/><path d="M171.81,105.73v4.61H170v-8.51h1.79v1.55a3.23,3.23,0,0,1,2.83-1.68,3.16,3.16,0,0,1,2.33.88,3.42,3.42,0,0,1,.89,2.54v5.22h-1.79v-4.67q0-2.35-2-2.35a2.35,2.35,0,0,0-1.62.62A2.29,2.29,0,0,0,171.81,105.73Z"/><path d="M184.13,110.46a4.3,4.3,0,0,1-3.06-1.21,4.49,4.49,0,0,1,.06-6.34,4.64,4.64,0,0,1,3.26-1.22,4.42,4.42,0,0,1,3.25,1.33l-1.06,1.3a3.4,3.4,0,0,0-2.22-1,2.81,2.81,0,0,0-1.94.74,2.47,2.47,0,0,0-.82,1.92,2.79,2.79,0,0,0,2.82,2.81,3.12,3.12,0,0,0,2.25-1.09l1.06,1.15A4.9,4.9,0,0,1,184.13,110.46Z"/><path d="M189.68,110.11a1.17,1.17,0,0,1-.34-.85,1.17,1.17,0,0,1,1.18-1.18,1.17,1.17,0,0,1,.85.34,1.13,1.13,0,0,1,.35.84,1.2,1.2,0,0,1-1.2,1.2A1.13,1.13,0,0,1,189.68,110.11Z"/></g></g></svg>